<?xml version="1.0" encoding="UTF-8"?>
<!DOCTYPE svg PUBLIC "-//W3C//DTD SVG 1.1//EN" "http://www.w3.org/Graphics/SVG/1.1/DTD/svg11.dtd">
<svg xmlns="http://www.w3.org/2000/svg" version="1.1" width="500px" height="500px" style="shape-rendering:geometricPrecision; text-rendering:geometricPrecision; image-rendering:optimizeQuality; fill-rule:evenodd; clip-rule:evenodd" xmlns:xlink="http://www.w3.org/1999/xlink">
<g><path style="opacity:1" fill="#fefefe" d="M -0.5,-0.5 C 166.167,-0.5 332.833,-0.5 499.5,-0.5C 499.5,166.167 499.5,332.833 499.5,499.5C 332.833,499.5 166.167,499.5 -0.5,499.5C -0.5,332.833 -0.5,166.167 -0.5,-0.5 Z"/></g>
<g><path style="opacity:1" fill="#fcfbf6" d="M 243.5,71.5 C 319.706,67.3483 377.873,97.3483 418,161.5C 442.323,206.418 447.323,253.418 433,302.5C 407.504,374.321 357.004,415.821 281.5,427C 205.27,431.638 147.103,401.805 107,337.5C 82.6773,292.582 77.6773,245.582 92,196.5C 117.662,124.667 168.162,83.0005 243.5,71.5 Z"/></g>
<g><path style="opacity:1" fill="#faf8f0" d="M 252.5,85.5 C 326.908,85.1538 380.408,118.154 413,184.5C 436.961,247.449 427.961,305.115 386,357.5C 343.288,402.738 291.121,420.238 229.5,410C 174.757,397.25 135.59,365.417 112,314.5C 88.0387,251.551 97.0387,193.885 139,141.5C 169.644,108.262 207.477,89.5949 252.5,85.5 Z"/></g>
<g><path style="opacity:1" fill="#f8f5ea" d="M 246.5,98.5 C 318.751,95.3535 370.584,126.02 402,190.5C 423.138,246.869 415.472,298.869 379,346.5C 335.93,393.852 283.097,410.019 220.5,395C 157.91,374.069 121.743,330.902 112,265.5C 108.258,202.15 132.758,153.317 185.5,119C 204.647,108.229 224.98,101.396 246.5,98.5 Z"/></g>
<g><path style="opacity:1" fill="#f6f2e4" d="M 245.5,107.5 C 294.865,103.617 336.365,119.617 370,155.5C 408.992,204.798 415.325,258.131 389,315.5C 365.1,358.703 328.6,383.869 279.5,391C 230.118,395.376 188.618,379.543 155,343.5C 116.008,294.202 109.675,240.869 136,183.5C 160.056,140.283 196.556,114.95 245.5,107.5 Z"/></g>
<g><path style="opacity:1" fill="#f4f0de" d="M 261.5,116.5 C 319.199,119.246 360.365,146.579 385,198.5C 405.251,255.992 393.751,306.159 350.5,349C 308.544,382.899 262.211,390.566 211.5,372C 159.878,347.63 132.545,306.797 129.5,249.5C 132.545,192.203 159.878,151.37 211.5,127C 227.726,120.723 244.393,117.223 261.5,116.5 Z"/></g>
<g><path style="opacity:1" fill="#f2eed9" d="M 258.5,122.5 C 313.482,123.695 353.315,148.695 378,197.5C 397.121,245.315 391.121,289.649 360,330.5C 321.559,372.199 275.059,385.032 220.5,369C 167.141,347.117 138.808,307.284 135.5,249.5C 138.286,196.395 163.286,157.895 210.5,134C 225.95,127.303 241.95,123.47 258.5,122.5 Z"/></g>
<g><path style="opacity:1" fill="#f1ecd6" d="M 249.5,127.5 C 300.719,124.858 340.219,144.858 368,187.5C 390,228.833 390,270.167 368,311.5C 340.242,354.296 300.742,374.129 249.5,371C 196.862,363.098 162.028,333.931 145,283.5C 132.838,233.329 145.671,190.829 183.5,156C 202.82,140.175 224.82,130.675 249.5,127.5 Z"/></g>
<g><path style="opacity:1" fill="#efead1" d="M 253.5,131.5 C 314.85,131.236 355.683,159.903 376,217.5C 387.256,265.723 374.756,306.557 338.5,340C 297.73,370.789 254.064,375.456 207.5,354C 164.384,328.614 143.551,290.781 145,240.5C 151.628,187.732 180.128,152.898 230.5,136C 238.244,134.151 245.911,132.651 253.5,131.5 Z"/></g>
<g><path style="opacity:1" fill="#efe8cd" d="M 257.5,137.5 C 305.171,137.906 340.338,158.906 363,200.5C 384.203,252.512 374.37,297.678 333.5,336C 286.167,370 238.833,370 191.5,336C 152.862,300.284 142.029,257.451 159,207.5C 178.421,165.239 211.255,141.905 257.5,137.5 Z"/></g>
<g><path style="opacity:1" fill="#efe6c9" d="M 169.5,192.5 C 169.833,194.5 170.167,196.5 170.5,198.5C 147.595,247.467 155.262,290.967 193.5,329C 227.971,356.185 265.637,361.519 306.5,345C 353.841,319.483 373.341,279.983 365,226.5C 353.096,182.596 324.929,155.763 280.5,146C 235.61,140.332 200.277,155.832 174.5,192.5C 173.167,192.5 171.833,192.5 170.5,192.5C 191.797,159.17 222.464,141.837 262.5,140.5C 314.898,143.766 349.731,170.099 367,219.5C 377.67,264.15 366.17,301.984 332.5,333C 285.833,367 239.167,367 192.5,333C 158.83,301.984 147.33,264.15 158,219.5C 160.787,209.949 164.62,200.949 169.5,192.5 Z"/></g>
<g><path style="opacity:1" fill="#f0e2c4" d="M 170.5,198.5 C 171.931,199.78 172.598,201.447 172.5,203.5C 170.45,210.151 168.283,216.818 166,223.5C 156.172,270.712 171.005,307.878 210.5,335C 252.641,357.262 292.308,353.596 329.5,324C 361.558,291.927 370.058,254.427 355,211.5C 336.699,172.399 305.865,151.732 262.5,149.5C 228.054,150.719 200.721,165.052 180.5,192.5C 178.5,192.5 176.5,192.5 174.5,192.5C 200.277,155.832 235.61,140.332 280.5,146C 324.929,155.763 353.096,182.596 365,226.5C 373.341,279.983 353.841,319.483 306.5,345C 265.637,361.519 227.971,356.185 193.5,329C 155.262,290.967 147.595,247.467 170.5,198.5 Z"/></g>
<g><path style="opacity:1" fill="#f1ddbd" d="M 172.5,203.5 C 174.02,205.89 175.02,208.557 175.5,211.5C 159.922,254.685 168.922,291.851 202.5,323C 242.5,351.667 282.5,351.667 322.5,323C 332.808,314.497 340.808,304.33 346.5,292.5C 348.399,288.699 349.732,284.699 350.5,280.5C 361.415,241.08 352.082,207.246 322.5,179C 293.66,156.583 261.993,151.583 227.5,164C 212.365,169.981 200.031,179.481 190.5,192.5C 187.167,192.5 183.833,192.5 180.5,192.5C 200.721,165.052 228.054,150.719 262.5,149.5C 305.865,151.732 336.699,172.399 355,211.5C 370.058,254.427 361.558,291.927 329.5,324C 292.308,353.596 252.641,357.262 210.5,335C 171.005,307.878 156.172,270.712 166,223.5C 168.283,216.818 170.45,210.151 172.5,203.5 Z"/></g>
<g><path style="opacity:1" fill="#f2d7b4" d="M 350.5,280.5 C 351.342,272.719 350.009,265.386 346.5,258.5C 347.596,248.491 347.263,238.491 345.5,228.5C 348.255,211.664 341.922,199.997 326.5,193.5C 297.561,164.212 263.894,157.378 225.5,173C 215.835,177.836 207.502,184.336 200.5,192.5C 197.167,192.5 193.833,192.5 190.5,192.5C 200.031,179.481 212.365,169.981 227.5,164C 261.993,151.583 293.66,156.583 322.5,179C 352.082,207.246 361.415,241.08 350.5,280.5 Z"/></g>
<g><path style="opacity:1" fill="#f3d2ac" d="M 326.5,193.5 C 323.545,192.841 320.545,192.508 317.5,192.5C 296.833,173.411 272.5,166.577 244.5,172C 233.455,174.524 223.455,179.19 214.5,186C 210.606,189.404 206.606,192.571 202.5,195.5C 202.573,193.973 201.906,192.973 200.5,192.5C 207.502,184.336 215.835,177.836 225.5,173C 263.894,157.378 297.561,164.212 326.5,193.5 Z"/></g>
<g><path style="opacity:1" fill="#f4cda5" d="M 317.5,192.5 C 314.167,192.5 310.833,192.5 307.5,192.5C 297.76,184.182 286.427,179.016 273.5,177C 256.499,174.734 240.499,177.734 225.5,186C 218.032,190.976 211.032,196.476 204.5,202.5C 204.233,200.035 203.566,197.701 202.5,195.5C 206.606,192.571 210.606,189.404 214.5,186C 223.455,179.19 233.455,174.524 244.5,172C 272.5,166.577 296.833,173.411 317.5,192.5 Z"/></g>
<g><path style="opacity:1" fill="#f4c99f" d="M 307.5,192.5 C 304.833,192.5 302.167,192.5 299.5,192.5C 275.057,178.018 250.391,177.851 225.5,192C 218.633,197.043 212.3,202.543 206.5,208.5C 206.029,206.421 205.363,204.421 204.5,202.5C 211.032,196.476 218.032,190.976 225.5,186C 240.499,177.734 256.499,174.734 273.5,177C 286.427,179.016 297.76,184.182 307.5,192.5 Z"/></g>
<g><path style="opacity:1" fill="#f5c499" d="M 299.5,192.5 C 295.167,192.5 290.833,192.5 286.5,192.5C 254.944,181.574 229.277,189.574 209.5,216.5C 208.129,214.064 207.129,211.397 206.5,208.5C 212.3,202.543 218.633,197.043 225.5,192C 250.391,177.851 275.057,178.018 299.5,192.5 Z"/></g>
<g><path style="opacity:1" fill="#f6bf90" d="M 286.5,192.5 C 272.829,192.333 259.163,192.5 245.5,193C 244.115,196.039 243.115,199.206 242.5,202.5C 228.503,207.831 218.836,217.497 213.5,231.5C 211.76,226.613 210.427,221.613 209.5,216.5C 229.277,189.574 254.944,181.574 286.5,192.5 Z"/></g>
<g><path style="opacity:1" fill="#fe914d" d="M 169.5,192.5 C 169.833,192.5 170.167,192.5 170.5,192.5C 171.833,192.5 173.167,192.5 174.5,192.5C 176.5,192.5 178.5,192.5 180.5,192.5C 183.833,192.5 187.167,192.5 190.5,192.5C 193.833,192.5 197.167,192.5 200.5,192.5C 201.906,192.973 202.573,193.973 202.5,195.5C 203.566,197.701 204.233,200.035 204.5,202.5C 205.363,204.421 206.029,206.421 206.5,208.5C 207.129,211.397 208.129,214.064 209.5,216.5C 210.427,221.613 211.76,226.613 213.5,231.5C 214.167,233.833 214.833,236.167 215.5,238.5C 218.18,247.556 221.014,256.556 224,265.5C 229.209,246.711 234.709,228.044 240.5,209.5C 241.167,207.167 241.833,204.833 242.5,202.5C 243.115,199.206 244.115,196.039 245.5,193C 259.163,192.5 272.829,192.333 286.5,192.5C 290.833,192.5 295.167,192.5 299.5,192.5C 302.167,192.5 304.833,192.5 307.5,192.5C 310.833,192.5 314.167,192.5 317.5,192.5C 320.545,192.508 323.545,192.841 326.5,193.5C 341.922,199.997 348.255,211.664 345.5,228.5C 343.211,236.474 338.544,242.807 331.5,247.5C 334.005,249.253 336.671,250.753 339.5,252C 341.703,254.372 344.037,256.539 346.5,258.5C 350.009,265.386 351.342,272.719 350.5,280.5C 349.732,284.699 348.399,288.699 346.5,292.5C 343.365,295.901 339.698,298.567 335.5,300.5C 332.833,301.5 330.167,302.5 327.5,303.5C 323.546,304.381 319.546,305.048 315.5,305.5C 310.5,305.5 305.5,305.5 300.5,305.5C 295.5,305.5 290.5,305.5 285.5,305.5C 275.167,305.5 264.833,305.5 254.5,305.5C 254.5,303.833 254.5,302.167 254.5,300.5C 254.5,296.833 254.5,293.167 254.5,289.5C 254.666,279.161 254.5,268.828 254,258.5C 250.393,267.823 246.893,277.156 243.5,286.5C 242.101,289.699 241.101,293.032 240.5,296.5C 238.795,299.261 237.462,302.261 236.5,305.5C 232.5,305.5 228.5,305.5 224.5,305.5C 219.786,305.827 215.12,305.493 210.5,304.5C 202.531,282.245 194.198,260.245 185.5,238.5C 184.208,233.618 182.541,228.952 180.5,224.5C 180.204,222.597 179.537,220.93 178.5,219.5C 178.02,216.557 177.02,213.89 175.5,211.5C 175.02,208.557 174.02,205.89 172.5,203.5C 172.598,201.447 171.931,199.78 170.5,198.5C 170.167,196.5 169.833,194.5 169.5,192.5 Z"/></g>
<g><path style="opacity:1" fill="#f8b785" d="M 242.5,202.5 C 241.833,204.833 241.167,207.167 240.5,209.5C 228.701,215.65 221.368,225.316 218.5,238.5C 217.5,238.5 216.5,238.5 215.5,238.5C 214.833,236.167 214.167,233.833 213.5,231.5C 218.836,217.497 228.503,207.831 242.5,202.5 Z"/></g>
<g><path style="opacity:1" fill="#f9b17c" d="M 240.5,209.5 C 234.709,228.044 229.209,246.711 224,265.5C 221.014,256.556 218.18,247.556 215.5,238.5C 216.5,238.5 217.5,238.5 218.5,238.5C 221.368,225.316 228.701,215.65 240.5,209.5 Z"/></g>
<g><path style="opacity:1" fill="#f1d9b7" d="M 175.5,211.5 C 177.02,213.89 178.02,216.557 178.5,219.5C 165.42,263.757 177.753,299.257 215.5,326C 258.587,348.114 297.087,341.948 331,307.5C 332.75,305.266 334.25,302.932 335.5,300.5C 339.698,298.567 343.365,295.901 346.5,292.5C 340.808,304.33 332.808,314.497 322.5,323C 282.5,351.667 242.5,351.667 202.5,323C 168.922,291.851 159.922,254.685 175.5,211.5 Z"/></g>
<g><path style="opacity:1" fill="#f2d6b2" d="M 178.5,219.5 C 179.537,220.93 180.204,222.597 180.5,224.5C 172.199,260.822 181.865,291.322 209.5,316C 244.833,340.667 280.167,340.667 315.5,316C 319.704,311.964 323.704,307.798 327.5,303.5C 330.167,302.5 332.833,301.5 335.5,300.5C 334.25,302.932 332.75,305.266 331,307.5C 297.087,341.948 258.587,348.114 215.5,326C 177.753,299.257 165.42,263.757 178.5,219.5 Z"/></g>
<g><path style="opacity:1" fill="#f8b683" d="M 309.5,219.5 C 313.274,220.534 315.274,223.034 315.5,227C 315.907,231.712 313.907,234.545 309.5,235.5C 304.5,235.5 299.5,235.5 294.5,235.5C 293.086,230.899 290.586,226.899 287,223.5C 286.51,222.207 286.343,220.873 286.5,219.5C 294.167,219.5 301.833,219.5 309.5,219.5 Z"/></g>
<g><path style="opacity:1" fill="#faa970" d="M 309.5,219.5 C 301.833,219.5 294.167,219.5 286.5,219.5C 286.343,220.873 286.51,222.207 287,223.5C 290.586,226.899 293.086,230.899 294.5,235.5C 299.5,235.5 304.5,235.5 309.5,235.5C 301.684,236.492 293.684,236.826 285.5,236.5C 285.5,230.5 285.5,224.5 285.5,218.5C 293.684,218.174 301.684,218.508 309.5,219.5 Z"/></g>
<g><path style="opacity:1" fill="#f3d1ab" d="M 180.5,224.5 C 182.541,228.952 184.208,233.618 185.5,238.5C 183.103,278.737 200.269,306.737 237,322.5C 266.524,331.405 292.691,325.739 315.5,305.5C 319.546,305.048 323.546,304.381 327.5,303.5C 323.704,307.798 319.704,311.964 315.5,316C 280.167,340.667 244.833,340.667 209.5,316C 181.865,291.322 172.199,260.822 180.5,224.5 Z"/></g>
<g><path style="opacity:1" fill="#f3cea7" d="M 345.5,228.5 C 347.263,238.491 347.596,248.491 346.5,258.5C 344.037,256.539 341.703,254.372 339.5,252C 336.671,250.753 334.005,249.253 331.5,247.5C 338.544,242.807 343.211,236.474 345.5,228.5 Z"/></g>
<g><path style="opacity:1" fill="#f4cba2" d="M 185.5,238.5 C 194.198,260.245 202.531,282.245 210.5,304.5C 215.12,305.493 219.786,305.827 224.5,305.5C 241.913,317.291 260.913,320.458 281.5,315C 288.452,312.857 294.786,309.691 300.5,305.5C 305.5,305.5 310.5,305.5 315.5,305.5C 292.691,325.739 266.524,331.405 237,322.5C 200.269,306.737 183.103,278.737 185.5,238.5 Z"/></g>
<g><path style="opacity:1" fill="#f9ad77" d="M 301.5,260.5 C 299.848,267.305 296.515,273.138 291.5,278C 293.708,278.191 295.708,278.691 297.5,279.5C 293.5,279.5 289.5,279.5 285.5,279.5C 285.5,273.167 285.5,266.833 285.5,260.5C 290.833,260.5 296.167,260.5 301.5,260.5 Z"/></g>
<g><path style="opacity:1" fill="#f7b886" d="M 301.5,260.5 C 306.297,260.121 310.964,260.621 315.5,262C 320.833,267.333 320.833,272.667 315.5,278C 309.593,279.361 303.593,279.861 297.5,279.5C 295.708,278.691 293.708,278.191 291.5,278C 296.515,273.138 299.848,267.305 301.5,260.5 Z"/></g>
<g><path style="opacity:1" fill="#faab73" d="M 254.5,289.5 C 250.89,288.297 247.223,287.297 243.5,286.5C 246.893,277.156 250.393,267.823 254,258.5C 254.5,268.828 254.666,279.161 254.5,289.5 Z"/></g>
<g><path style="opacity:1" fill="#f8b683" d="M 243.5,286.5 C 247.223,287.297 250.89,288.297 254.5,289.5C 254.5,293.167 254.5,296.833 254.5,300.5C 249.649,299.771 244.982,298.438 240.5,296.5C 241.101,293.032 242.101,289.699 243.5,286.5 Z"/></g>
<g><path style="opacity:1" fill="#f6be90" d="M 240.5,296.5 C 244.982,298.438 249.649,299.771 254.5,300.5C 254.5,302.167 254.5,303.833 254.5,305.5C 264.833,305.5 275.167,305.5 285.5,305.5C 278.303,308.761 270.636,310.428 262.5,310.5C 253.573,310.101 244.906,308.434 236.5,305.5C 237.462,302.261 238.795,299.261 240.5,296.5 Z"/></g>
<g><path style="opacity:1" fill="#f5c498" d="M 224.5,305.5 C 228.5,305.5 232.5,305.5 236.5,305.5C 244.906,308.434 253.573,310.101 262.5,310.5C 270.636,310.428 278.303,308.761 285.5,305.5C 290.5,305.5 295.5,305.5 300.5,305.5C 294.786,309.691 288.452,312.857 281.5,315C 260.913,320.458 241.913,317.291 224.5,305.5 Z"/></g>
</svg>
